#!OML:ASF F:\Work\Patient Classification 1\justin\Session 1\justin.ASF
:FULLY-SPECIFIED
:DEGREES
8164
root 0.798049 16.5495 5.30457 4.59793 -22.7889 -15.068
lowerback 15.8166 5.75596 13.5216
upperback 0.987114 10.2426 3.92968
thorax -6.14096 4.63683 -5.23192
lowerneck -25.0591 -5.55429 -15.6785
upperneck 14.8173 -4.61394 12.0746
head 9.43064 -1.72611 6.13589
rclavicle 1.50878e-013 1.82882e-014
rhumerus -40.4603 21.5269 -94.0674
rradius 120.258
rwrist -8.01891
rhand -7.35104 30.8723
rfingers 7.12502
rthumb 18.5332 1.73517
lclavicle 1.50878e-013 1.82882e-014
lhumerus -84.9469 27.4159 14.5772
lradius 45.9458
lwrist 40.6069
lhand -13.3565 17.082
lfingers 7.12502
lthumb 12.7495 46.6728
rfemur 9.16212 -15.3184 27.9941
rtibia 32.1755
rfoot -31.7786 -6.69371
rtoes -32.1609
lfemur -44.289 1.77667 7.3071
ltibia 35.5011
lfoot 19.6341 -7.46515
ltoes -20.8195
8165
root 0.819511 16.5795 5.44868 5.48238 -24.0695 -15.5324
lowerback 15.986 5.70831 13.8276
upperback 0.757899 10.306 4.15226
thorax -6.47006 4.621 -5.20583
lowerneck -25.6104 -5.04516 -15.5613
upperneck 14.9306 -3.79815 11.7411
head 9.4253 -1.36285 6.12835
rclavicle 6.02815e-014 4.37326e-015
rhumerus -40.9279 21.8703 -94.6457
rradius 120.062
rwrist -7.68444
rhand -7.9779 29.2664
rfingers 7.12502
rthumb 17.9301 0.0729555
lclavicle 6.02815e-014 4.37326e-015
lhumerus -85.3031 27.1564 13.7656
lradius 45.9501
lwrist 40.3764
lhand -13.3807 16.9591
lfingers 7.12502
lthumb 12.7262 46.5513
rfemur 9.70687 -14.398 27.9143
rtibia 30.5595
rfoot -31.1376 -5.92682
rtoes -32.4135
lfemur -43.8842 2.17468 8.15819
ltibia 35.3457
lfoot 19.6723 -8.13884
ltoes -24.9602
8166
root 0.846427 16.6206 5.61773 6.22625 -25.5386 -15.8354
lowerback 15.9806 5.69648 14.2098
upperback 0.666392 10.3704 4.24497
thorax -6.5111 4.63071 -5.31892
lowerneck -26.0763 -4.4939 -15.1254
upperneck 14.8957 -3.0074 11.2134
head 9.35189 -1.01482 5.98535
rclavicle 1.84522e-013 2.46493e-014
rhumerus -41.3937 22.0447 -95.2584
rradius 119.828
rwrist -7.60942
rhand -8.25271 28.412
rfingers 7.12502
rthumb 17.6657 -0.805522
lclavicle 1.84522e-013 2.46493e-014
lhumerus -85.1642 27.0791 12.8581
lradius 45.6154
lwrist 40.0575
lhand -12.9698 16.8576
lfingers 7.12502
lthumb 13.1223 46.4247
rfemur 10.4544 -13.6227 27.3528
rtibia 28.8651
rfoot -30.4351 -4.98788
rtoes -33.3829
lfemur -42.998 2.49015 8.77586
ltibia 35.2766
lfoot 17.9588 -11.2329
ltoes -33.3108
8167
root 0.870423 16.6635 5.77296 7.09032 -26.8044 -16.0715
lowerback 15.6864 5.64544 14.6332
upperback 0.817339 10.2945 4.26884
thorax -6.12644 4.61713 -5.44535
lowerneck -27.0602 -4.00297 -14.5132
upperneck 14.8205 -2.24003 10.4507
head 9.35549 -0.682873 5.72685
rclavicle -1.48393e-013 -3.77691e-014
rhumerus -41.5498 22.0255 -95.6435
rradius 119.633
rwrist -7.69234
rhand -8.01216 28.6391
rfingers 7.12502
rthumb 17.8971 -0.557368
lclavicle -1.48393e-013 -3.77691e-014
lhumerus -84.529 27.7338 11.8152
lradius 45.0298
lwrist 39.6827
lhand -12.1349 16.6606
lfingers 7.12502
lthumb 13.927 46.1742
rfemur 10.874 -12.8008 26.9588
rtibia 27.2717
rfoot -29.6277 -4.85009
rtoes -35.4988
lfemur -42.3905 2.49209 9.40111
ltibia 35.1905
lfoot 19.6139 -8.90306
ltoes -31.2225
8168
root 0.888451 16.7062 5.91818 7.9732 -28.0978 -16.0049
lowerback 15.8629 5.57704 14.2112
upperback 0.502206 10.2263 4.50342
thorax -6.70428 4.53678 -5.02311
lowerneck -27.7941 -3.31916 -14.1482
upperneck 15.2573 -1.16988 9.6165
head 9.47043 -0.255123 5.54476
rclavicle -9.26337e-014 -4.29375e-014
rhumerus -42.7292 22.2838 -96.1935
rradius 119.635
rwrist -7.75578
rhand -7.77068 28.6797
rfingers 7.12502
rthumb 18.1295 -0.495408
lclavicle -9.26337e-014 -4.29375e-014
lhumerus -84.1825 27.6061 10.8667
lradius 44.5121
lwrist 39.5437
lhand -12.144 16.7883
lfingers 7.12502
lthumb 13.9182 46.3025
rfemur 11.0246 -11.6838 26.4493
rtibia 25.8254
rfoot -28.8179 -4.73054
rtoes -36.9953
lfemur -41.9022 2.427 9.75692
ltibia 35.1142
lfoot 20.9113 -7.14791
ltoes -29.1743
8169
root 0.908133 16.7411 6.07609 8.78235 -29.5231 -15.6956
lowerback 15.764 5.59095 13.7588
upperback 0.275166 10.186 4.59523
thorax -7.00137 4.50142 -4.69322
lowerneck -28.248 -2.61995 -13.7666
upperneck 15.441 -0.120204 8.78905
head 9.46777 0.16035 5.34806
rclavicle 3.51849e-014 3.97569e-014
rhumerus -43.6402 22.2976 -96.6385
rradius 119.638
rwrist -7.60015
rhand -7.37057 28.3951
rfingers 7.12502
rthumb 18.5144 -0.743782
lclavicle 3.51849e-014 3.97569e-014
lhumerus -83.2478 27.5423 9.96956
lradius 43.8384
lwrist 39.2149
lhand -13.1323 17.9347
lfingers 7.12502
lthumb 12.9656 47.5119
rfemur 11.0974 -10.5017 25.5304
rtibia 24.6102
rfoot -28.2217 -3.6663
rtoes -36.5281
lfemur -41.2551 2.91363 9.54368
ltibia 34.9295
lfoot 19.3675 -6.81935
ltoes -32.1121
8170
root 0.93092 16.7692 6.22499 9.66674 -30.7173 -15.3783
lowerback 15.5263 5.52231 13.4387
upperback 0.124374 10.0178 4.60189
thorax -7.11684 4.41811 -4.47654
lowerneck -28.5289 -1.87225 -13.1796
upperneck 15.2052 0.921118 7.83899
head 9.30539 0.576554 5.05552
rclavicle -2.77305e-014 2.14687e-014
rhumerus -44.1435 22.2232 -96.9673
rradius 119.56
rwrist -7.37288
rhand -6.92568 28.1911
rfingers 7.12502
rthumb 18.9423 -0.906578
lclavicle -2.77305e-014 2.14687e-014
lhumerus -81.9714 27.7907 8.88155
lradius 43.2341
lwrist 38.7354
lhand -12.3345 16.7976
lfingers 7.12502
lthumb 13.7346 46.3243
rfemur 10.8217 -9.6403 24.5903
rtibia 23.7462
rfoot -27.7246 -2.70026
rtoes -36.1264
lfemur -40.9332 3.76823 9.04575
ltibia 34.8327
lfoot 16.483 -9.45806
ltoes -35.9158
8171
root 0.952055 16.7991 6.36431 10.6089 -31.88 -15.3062
lowerback 15.4951 5.42312 13.2477
upperback -0.00408961 9.8713 4.6958
thorax -7.3138 4.3347 -4.26193
lowerneck -28.6292 -1.18857 -12.6961
upperneck 14.7186 1.88919 6.86153
head 9.05179 0.954581 4.74895
rclavicle 2.5345e-014 7.95139e-016
rhumerus -44.4946 22.3751 -97.2637
rradius 119.42
rwrist -7.39693
rhand -7.02816 27.9075
rfingers 7.12502
rthumb 18.8437 -1.19974
lclavicle 2.5345e-014 7.95139e-016
lhumerus -80.5078 28.1415 7.9137
lradius 43.0344
lwrist 38.623
lhand -12.7562 17.1688
lfingers 7.12502
lthumb 13.3282 46.7225
rfemur 10.4599 -8.55485 23.9938
rtibia 23.07
rfoot -27.196 -1.9721
rtoes -35.5123
lfemur -40.8306 4.46978 8.872
ltibia 34.8882
lfoot 16.615 -6.37235
ltoes -27.7713
8172
root 0.975078 16.8047 6.50846 11.4948 -33.2054 -15.542
lowerback 15.6801 5.36061 13.2364
upperback -0.0261306 9.83298 4.89385
thorax -7.48739 4.30117 -4.06547
lowerneck -29.0073 -0.530595 -12.3115
upperneck 14.4867 2.8588 6.01075
head 8.94556 1.33754 4.51927
rclavicle -1.08338e-013 2.14687e-014
rhumerus -44.88 22.5862 -97.4641
rradius 119.477
rwrist -7.6243
rhand -7.23477 27.7474
rfingers 7.12502
rthumb 18.645 -1.37909
lclavicle -1.08338e-013 2.14687e-014
lhumerus -78.7518 28.5755 7.06846
lradius 42.988
lwrist 38.8105
lhand -13.2331 17.4249
lfingers 7.12502
lthumb 12.8684 47.0082
rfemur 10.2769 -6.721 23.776
rtibia 22.5358
rfoot -26.6515 -1.55388
rtoes -34.2219
lfemur -40.474 5.42417 8.83659
ltibia 35.1791
lfoot 15.5718 -5.04949
ltoes -25.9666
8173
root 1.00566 16.8201 6.6553 12.0782 -34.1541 -15.5438
lowerback 15.9362 5.0921 13.261
upperback -0.0011429 9.53089 5.02432
thorax -7.66936 4.13933 -3.92035
lowerneck -29.4742 0.245638 -11.8907
upperneck 14.4085 3.93855 5.34317
head 8.90639 1.79048 4.37369
rclavicle 6.40087e-014 4.37326e-014
rhumerus -45.2926 22.8274 -97.6706
rradius 119.666
rwrist -7.91569
rhand -7.30167 27.7444
rfingers 7.12502
rthumb 18.5807 -1.38818
lclavicle 6.40087e-014 4.37326e-014
lhumerus -76.8342 29.055 6.13258
lradius 43.0698
lwrist 39.157
lhand -13.0647 17.3651
lfingers 7.12502
lthumb 13.0308 46.9381
rfemur 10.1271 -5.10515 23.4353
rtibia 22.2248
rfoot -26.1054 -1.75367
rtoes -34.2662
lfemur -40.222 6.09863 8.44715
ltibia 35.598
lfoot 14.0052 -5.26848
ltoes -28.3712
8174
root 1.04968 16.8335 6.79959 12.2738 -34.2172 -15.219
lowerback 16.3095 4.48709 13.5808
upperback -0.0597357 8.8695 5.09135
thorax -8.01048 3.77702 -3.94774
lowerneck -29.4916 0.999398 -11.5986
upperneck 14.157 4.97704 4.66044
head 8.74992 2.21924 4.22144
rclavicle -4.41302e-014 -5.80451e-014
rhumerus -45.707 22.9365 -97.8054
rradius 119.686
rwrist -8.23979
rhand -7.40174 27.9239
rfingers 7.12502
rthumb 18.4844 -1.21791
lclavicle -4.41302e-014 -5.80451e-014
lhumerus -74.5254 29.3385 5.52225
lradius 43.3996
lwrist 39.9716
lhand -12.9814 17.5279
lfingers 7.12502
lthumb 13.1112 47.0957
rfemur 10.0612 -4.42782 22.8505
rtibia 22.2028
rfoot -25.7655 -1.30239
rtoes -32.6629
lfemur -40.5398 6.26421 7.63056
ltibia 36.3012
lfoot 12.3432 -6.15911
ltoes -30.4501
8175
root 1.08104 16.8449 6.9145 12.9735 -35.1637 -15.4
lowerback 16.7898 4.36352 13.5538
upperback -0.112507 8.81149 5.31503
thorax -8.39232 3.71756 -3.73806
lowerneck -29.4265 1.63976 -11.593
upperneck 13.8432 5.92242 4.15805
head 8.56375 2.61468 4.15887
rclavicle 1.59028e-015 -2.14687e-014
rhumerus -45.9662 22.8795 -97.6349
rradius 119.71
rwrist -8.72201
rhand -7.17479 28.3365
rfingers 7.12502
rthumb 18.7027 -0.784356
lclavicle 1.59028e-015 -2.14687e-014
lhumerus -71.6968 29.7615 5.17514
lradius 43.6914
lwrist 41.0024
lhand -13.8906 18.6342
lfingers 7.12502
lthumb 12.2346 48.2564
rfemur 9.50962 -3.02911 22.4804
rtibia 22.4169
rfoot -25.3314 0.0344227
rtoes -28.6153
lfemur -40.7691 7.51825 7.11545
ltibia 37.137
lfoot 11.1241 -6.3404
ltoes -30.1075
8176
root 1.1108 16.8536 7.02648 13.3526 -35.9267 -15.3746
lowerback 17.3496 4.19321 13.3912
upperback 0.0187404 8.64654 5.45971
thorax -8.63157 3.629 -3.51763
lowerneck -29.8302 2.16559 -11.572
upperneck 13.7389 6.73057 3.84033
head 8.53338 2.96057 4.15916
rclavicle 1.37161e-014 -2.54444e-014
rhumerus -45.8584 22.739 -97.1951
rradius 119.798
rwrist -8.75683
rhand -7.02131 28.2361
rfingers 7.12502
rthumb 18.8503 -0.870468
lclavicle 1.37161e-014 -2.54444e-014
lhumerus -68.4232 30.629 4.73421
lradius 43.8361
lwrist 41.7203
lhand -13.8095 17.9363
lfingers 7.12502
lthumb 12.3128 47.5538
rfemur 8.85321 -2.35925 21.8975
rtibia 23.01
rfoot -24.7908 0.43489
rtoes -28.642
lfemur -40.9827 8.51484 6.36931
ltibia 38.1297
lfoot 9.96772 -6.36675
ltoes -30.9243
8177
root 1.14364 16.8517 7.12738 13.5629 -36.2707 -15.2208
lowerback 17.7873 3.80058 13.3174
upperback 0.254373 8.16551 5.58543
thorax -8.71053 3.40184 -3.27842
lowerneck -30.1884 2.72335 -11.4934
upperneck 13.537 7.56292 3.44544
head 8.46821 3.31562 4.12222
rclavicle -5.86415e-014 -1.27222e-014
rhumerus -45.494 22.7248 -96.5598
rradius 119.88
rwrist -8.64949
rhand -6.98537 27.9345
rfingers 7.12502
rthumb 18.8849 -1.16878
lclavicle -5.86415e-014 -1.27222e-014
lhumerus -65.1163 31.5079 4.29196
lradius 44.1489
lwrist 42.3279
lhand -13.3556 17.9362
lfingers 7.12502
lthumb 12.7504 47.5269
rfemur 8.10167 -2.36794 21.2913
rtibia 24.0529
rfoot -24.4062 0.255819
rtoes -31.0171
lfemur -41.4613 8.90671 5.69156
ltibia 39.1702
lfoot 9.10541 -5.78139
ltoes -30.2069
8178
root 1.18209 16.8333 7.21179 13.8054 -36.4448 -15.1371
lowerback 18.0474 3.27491 13.2656
upperback 0.576746 7.47377 5.78307
thorax -8.62379 3.08998 -2.9023
lowerneck -29.8819 3.40596 -11.5698
upperneck 12.73 8.50171 3.10063
head 8.07744 3.75451 4.09396
rclavicle 6.67916e-014 2.38542e-014
rhumerus -45.0834 23.062 -95.9398
rradius 120.113
rwrist -9.30165
rhand -6.61517 27.9867
rfingers 7.12502
rthumb 19.2409 -1.08152
lclavicle 6.67916e-014 2.38542e-014
lhumerus -61.9058 32.3176 3.73916
lradius 44.5457
lwrist 42.9148
lhand -12.9755 18.2998
lfingers 7.12502
lthumb 13.1168 47.8673
rfemur 7.3221 -2.30087 20.8135
rtibia 25.3989
rfoot -24.3122 0.495052
rtoes -31.6772
lfemur -42.1996 9.22979 5.11949
ltibia 40.2604
lfoot 8.4021 -5.25827
ltoes -29.2008
